<svg version="1.1" xmlns="http://www.w3.org/2000/svg" viewBox="-0.17480568750000003 -3.031251 59.172853562499995 11.140627" fill="none" stroke="black" stroke-width="0.6%" vector-effect="non-scaling-stroke">
    <path d="M 1.76758 7.10938 L 1.76758 0.7666 L 5.13672 0.7666 L 5.13672 0 L 0.8252 0 L 0.8252 7.10938 L 1.76758 7.10938 Z" />
    <path d="M 5.8252 2.62695 L 5.8252 2.69043 Q 5.83 3.47 6.13037 4.08691 Q 6.44 4.71 6.97998 5.04395 Q 7.52 5.38 8.22266 5.38086 Q 9.3 5.38 9.96826 4.63379 Q 10.63 3.89 10.63477 2.64648 L 10.63477 2.58301 Q 10.63 1.81 10.33936 1.19873 Q 10.04 0.59 9.49463 0.24414 Q 8.95 -0.1 8.23242 -0.09766 Q 7.16 -0.1 6.4917 0.64941 Q 5.83 1.4 5.8252 2.62695 Z" />
    <path d="M 6.7334 2.58301 Q 6.73 1.7 7.14111 1.17188 Q 7.55 0.64 8.23242 0.63965 Q 8.92 0.64 9.32617 1.1792 Q 9.73 1.72 9.73145 2.69043 Q 9.73 3.56 9.31885 4.09912 Q 8.91 4.64 8.22266 4.63867 Q 7.55 4.64 7.14355 4.10645 Q 6.73 3.57 6.7334 2.58301 Z" />
    <path d="M 14.32129 5.3125 L 14.32129 4.47266 Q 14.12 4.51 13.87695 4.50684 Q 12.99 4.51 12.6709 3.75 L 12.6709 0 L 11.76758 0 L 11.76758 5.2832 L 12.64648 5.2832 L 12.66113 4.67285 Q 13.11 5.38 13.9209 5.38086 Q 14.18 5.38 14.32129 5.3125 Z" />
    <path d="M 17.25098 -0.09766 Q 16.18 -0.1 15.50293 0.60791 Q 14.83 1.31 14.8291 2.49512 L 14.8291 2.66113 Q 14.83 3.45 15.12939 4.06494 Q 15.43 4.68 15.96924 5.03174 Q 16.51 5.38 17.13867 5.38086 Q 18.17 5.38 18.74023 4.70215 Q 19.31 4.02 19.31152 2.75879 L 19.31152 2.38281 L 15.73242 2.38281 Q 15.75 1.6 16.18896 1.12061 Q 16.63 0.64 17.2998 0.63965 Q 17.78 0.64 18.11035 0.83496 Q 18.44 1.03 18.69141 1.35254 L 19.24316 0.92285 Q 18.58 -0.1 17.25098 -0.09766 Z" />
    <path d="M 17.13867 4.63867 Q 16.59 4.64 16.2207 4.24072 Q 15.85 3.84 15.76172 3.125 L 18.4082 3.125 L 18.4082 3.19336 Q 18.37 3.88 18.03711 4.26025 Q 17.71 4.64 17.13867 4.63867 Z" />
    <path d="M 20.35156 5.2832 L 21.20605 5.2832 L 21.23047 4.69727 Q 21.81 5.38 22.79785 5.38086 Q 23.91 5.38 24.30664 4.53125 Q 24.57 4.91 24.99268 5.14648 Q 25.42 5.38 25.99121 5.38086 Q 27.73 5.38 27.75879 3.54004 L 27.75879 0 L 26.85547 0 L 26.85547 3.48633 Q 26.86 4.05 26.59668 4.3335 Q 26.34 4.61 25.72754 4.61426 Q 25.22 4.61 24.89258 4.31396 Q 24.56 4.01 24.50684 3.50586 L 24.50684 0 L 23.59863 0 L 23.59863 3.46191 Q 23.6 4.61 22.4707 4.61426 Q 21.58 4.61 21.25488 3.85742 L 21.25488 0 L 20.35156 0 L 20.35156 5.2832 Z" />
    <path d="M 32.74414 7.10938 L 32.74414 0 L 31.80664 0 L 31.80664 7.10938 L 32.74414 7.10938 Z" />
    <path d="M 38.7793 2.66602 L 38.7793 2.58301 Q 38.78 1.38 38.22754 0.63965 Q 37.68 -0.1 36.7334 -0.09766 Q 35.77 -0.1 35.21973 0.5127 L 35.21973 -2.03125 L 34.31641 -2.03125 L 34.31641 5.2832 L 35.1416 5.2832 L 35.18555 4.69727 Q 35.74 5.38 36.71875 5.38086 Q 37.67 5.38 38.2251 4.66309 Q 38.78 3.95 38.7793 2.66602 Z" />
    <path d="M 37.87598 2.68555 Q 37.88 3.58 37.49512 4.09668 Q 37.11 4.61 36.4502 4.61426 Q 35.63 4.61 35.21973 3.88672 L 35.21973 1.3623 Q 35.63 0.64 36.45996 0.63965 Q 37.11 0.64 37.49268 1.15479 Q 37.88 1.67 37.87598 2.68555 Z" />
    <path d="M 43.00293 1.40137 Q 43 1.77 42.72705 1.97021 Q 42.45 2.17 41.76514 2.31934 Q 41.08 2.47 40.67627 2.6709 Q 40.27 2.88 40.08057 3.15918 Q 39.89 3.44 39.8877 3.83301 Q 39.89 4.48 40.43701 4.93164 Q 40.99 5.38 41.84082 5.38086 Q 42.74 5.38 43.29834 4.91699 Q 43.86 4.45 43.85742 3.73047 L 42.94922 3.73047 Q 42.95 4.1 42.63428 4.37012 Q 42.32 4.64 41.84082 4.63867 Q 41.35 4.64 41.06934 4.42383 Q 40.79 4.21 40.79102 3.8623 Q 40.79 3.54 41.0498 3.36914 Q 41.31 3.2 41.98486 3.05176 Q 42.66 2.9 43.08105 2.69043 Q 43.5 2.48 43.70361 2.18506 Q 43.91 1.89 43.90625 1.46484 Q 43.91 0.76 43.33984 0.32959 Q 42.77 -0.1 41.87012 -0.09766 Q 41.24 -0.1 40.74707 0.12695 Q 40.26 0.35 39.98291 0.75439 Q 39.71 1.16 39.70703 1.62598 L 40.61035 1.62598 Q 40.63 1.17 40.97412 0.90576 Q 41.31 0.64 41.87012 0.63965 Q 42.38 0.64 42.69287 0.84717 Q 43 1.05 43.00293 1.40137 Z" />
    <path d="M 48.36426 0 L 48.34473 0.52246 Q 47.82 -0.1 46.79688 -0.09766 Q 45.95 -0.1 45.51025 0.39307 Q 45.07 0.88 45.06348 1.8457 L 45.06348 5.2832 L 45.9668 5.2832 L 45.9668 1.87012 Q 45.97 0.67 46.94336 0.66895 Q 47.98 0.67 48.32031 1.44043 L 48.32031 5.2832 L 49.22363 5.2832 L 49.22363 0 L 48.36426 0 Z" />
    <path d="M 50.59082 5.2832 L 51.44531 5.2832 L 51.46973 4.69727 Q 52.05 5.38 53.03711 5.38086 Q 54.15 5.38 54.5459 4.53125 Q 54.81 4.91 55.23193 5.14648 Q 55.65 5.38 56.23047 5.38086 Q 57.97 5.38 57.99805 3.54004 L 57.99805 0 L 57.09473 0 L 57.09473 3.48633 Q 57.09 4.05 56.83594 4.3335 Q 56.58 4.61 55.9668 4.61426 Q 55.46 4.61 55.13184 4.31396 Q 54.8 4.01 54.74609 3.50586 L 54.74609 0 L 53.83789 0 L 53.83789 3.46191 Q 53.84 4.61 52.70996 4.61426 Q 51.82 4.61 51.49414 3.85742 L 51.49414 0 L 50.59082 0 L 50.59082 5.2832 Z" />
</svg>